# xmcd
#
# Track frame offsets: 
#        150
#        13446
#        26678
#        41089
#        55438
#        70281
#        83835
#        97306
#        111360
#        125416
#        139301
#        152349
#        166013
#        180167
#        194300
#        209063
#        222692
#        237098
#        251257
#        264571
#        278758
#        292328
#        305781
#        318923
#        333467
#
# Disc length: 4625 seconds
#
# Revision: 0
# Processed by: cddbd v1.5.2PL0 Copyright (c) Steve Scherf et al.
# Submitted via: ExactAudioCopyFreeDBPlugin 1.0
#
DISCID=86120f19
DTITLE=Lead Belly - Rock Island Line CD1 (Compilation Blues Characters
DTITLE=)
DYEAR=1900
DGENRE=Blues
TTITLE0=Packin' trunk blues
TTITLE1=C.C. Rider
TTITLE2=New black snake moan
TTITLE3=Kansas City papa
TTITLE4=Pigmeat papa
TTITLE5=Pick a bale of cotton
TTITLE6=Yellow gal
TTITLE7=Whoa back, Buck
TTITLE8=The midnight special
TTITLE9=Alabama bound
TTITLE10=Good morning blues
TTITLE11=Leavin' blues
TTITLE12=T.B. blues
TTITLE13=Red cross store blues
TTITLE14=Sail on, little girl, sail on
TTITLE15=Roberta
TTITLE16=Alberta
TTITLE17=I'm on my last go round
TTITLE18=Grey goose
TTITLE19=Didn't ol' John cross the water
TTITLE20=Stewball
TTITLE21=Take this hammer
TTITLE22=Can't you line'em
TTITLE23=Julie Ann Johnson
TTITLE24=Ham an' eggs
EXTD=
EXTT0=
EXTT1=
EXTT2=
EXTT3=
EXTT4=
EXTT5=
EXTT6=
EXTT7=
EXTT8=
EXTT9=
EXTT10=
EXTT11=
EXTT12=
EXTT13=
EXTT14=
EXTT15=
EXTT16=
EXTT17=
EXTT18=
EXTT19=
EXTT20=
EXTT21=
EXTT22=
EXTT23=
EXTT24=
PLAYORDER=
